<svg xmlns="http://www.w3.org/2000/svg" viewBox="0 0 80 80"><rect width="80" height="80" rx="12" fill="#fff" fill-opacity="0.08"/><path d="M40 14C25.6 14 14 25.6 14 40c0 11.5 7.5 21.3 17.8 24.7 1.3.2 1.8-.6 1.8-1.2v-4.3c-7.2 1.6-8.7-3.5-8.7-3.5-1.2-3-2.9-3.8-2.9-3.8-2.3-1.6.2-1.6.2-1.6 2.6.2 4 2.7 4 2.7 2.3 4 6 2.8 7.5 2.2.2-1.7.9-2.8 1.6-3.5-5.7-.6-11.7-2.9-11.7-12.7 0-2.8 1-5.1 2.7-6.9-.3-.6-1.1-3.2.3-6.7 0 0 2.2-.7 7.2 2.7 2.1-.6 4.3-.9 6.5-.9s4.4.3 6.5.9c5-3.4 7.2-2.7 7.2-2.7 1.4 3.5.5 6.1.3 6.7 1.7 1.8 2.7 4.1 2.7 6.9 0 9.9-6 12.1-11.7 12.7.9.8 1.7 2.4 1.7 4.8v7.1c0 .7.5 1.4 1.8 1.2C58.5 61.3 66 51.5 66 40c0-14.4-11.6-26-26-26z" fill="white"/></svg>